<svg width="26" height="26" viewBox="0 0 26 26" fill="none" xmlns="http://www.w3.org/2000/svg">
<path fill-rule="evenodd" clip-rule="evenodd" d="M2.35565 0.404166C1.81676 -0.134722 0.943053 -0.134722 0.404165 0.404166C-0.134722 0.943055 -0.134722 1.81677 0.404165 2.35565L11.0483 12.9999L0.404165 23.6441C-0.134722 24.183 -0.134722 25.0567 0.404165 25.5956C0.943053 26.1344 1.81676 26.1344 2.35565 25.5956L12.9998 14.9514L23.6438 25.5954C24.1827 26.1343 25.0564 26.1343 25.5953 25.5954C26.1342 25.0565 26.1342 24.1828 25.5953 23.6439L14.9513 12.9999L25.5953 2.35582C26.1342 1.81693 26.1342 0.943216 25.5953 0.404327C25.0564 -0.134561 24.1827 -0.134562 23.6438 0.404328L12.9998 11.0484L2.35565 0.404166Z" fill="white"/>
</svg>
