<svg width="23" height="23" viewBox="0 0 23 23" fill="none" xmlns="http://www.w3.org/2000/svg">
<g clip-path="url(#clip0_36_136)">
<path fill-rule="evenodd" clip-rule="evenodd" d="M0.653961 3.27606C0 4.55953 0 6.23969 0 9.6V11.5V13.4C0 16.7603 0 18.4405 0.653961 19.7239C1.2292 20.8529 2.14708 21.7708 3.27606 22.346C4.55953 23 6.23969 23 9.6 23H11.5H13.4C16.7603 23 18.4405 23 19.7239 22.346C20.8529 21.7708 21.7708 20.8529 22.346 19.7239C23 18.4405 23 16.7603 23 13.4V11.5V9.6C23 6.23969 23 4.55953 22.346 3.27606C21.7708 2.14708 20.8529 1.2292 19.7239 0.653961C18.4405 0 16.7603 0 13.4 0H11.5H9.6C6.23969 0 4.55953 0 3.27606 0.653961C2.14708 1.2292 1.2292 2.14708 0.653961 3.27606ZM11.5 0L10.8133 7.21054C10.6314 9.1199 9.11989 10.6314 7.21054 10.8133L0 11.5L7.33063 12.422C9.18427 12.6552 10.6296 14.1404 10.8123 15.9997L11.5 23L12.1877 15.9997C12.3703 14.1404 13.8157 12.6552 15.6694 12.422L23 11.5L15.7895 10.8133C13.8801 10.6314 12.3686 9.11989 12.1867 7.21054L11.5 0Z" fill="white"/>
</g>
<defs>
<clipPath id="clip0_36_136">
<rect width="23" height="23" fill="white"/>
</clipPath>
</defs>
</svg>
