<svg width="25" height="26" viewBox="0 0 25 26" fill="none" xmlns="http://www.w3.org/2000/svg">
<path d="M24.4609 21.1496L20.62 17.3007C19.5419 16.2203 17.7938 16.2203 16.7156 17.3007L16.1147 17.9029C15.6311 18.3863 15.2951 18.9979 15.1461 19.6659C13.8442 19.6903 12.3719 19.4684 11.1126 18.6497C10.3391 18.0736 9.60869 17.4416 8.9272 16.7587C8.3515 16.1821 7.8117 15.5706 7.31084 14.9277C6.32942 13.6064 6.07043 12.003 6.09662 10.5976C6.76325 10.4483 7.37356 10.1115 7.85598 9.62694L8.4569 9.02477C9.53505 7.94437 9.53505 6.19269 8.4569 5.11224L4.61602 1.26336C3.89724 0.543074 2.73187 0.543074 2.01313 1.26336L1.35371 1.9243C0.508367 2.77141 0.0756309 3.87471 0.0531294 4.98485C-0.16334 7.3271 0.284313 9.90552 1.34775 12.4414C2.0499 14.1158 3.01392 15.7507 4.18799 17.2703C4.20281 17.2901 4.21686 17.3103 4.23188 17.3301L4.2336 17.3288C4.83303 18.0993 5.47931 18.8321 6.16878 19.523C6.88134 20.2376 7.63842 20.9061 8.43546 21.5246L8.42777 21.5348C8.56056 21.6357 8.69601 21.7331 8.83396 21.8267C12.1845 24.3101 15.9714 25.7053 19.4955 25.7051C19.7013 25.7051 19.9065 25.6992 20.1106 25.6896C21.4232 25.8513 22.7938 25.4285 23.8014 24.4188L24.461 23.7579C25.1797 23.0377 25.1797 21.8699 24.4609 21.1496Z" fill="#9E9DFB"/>
</svg>
