<svg width="23" height="23" viewBox="0 0 23 23" fill="none" xmlns="http://www.w3.org/2000/svg">
<path fill-rule="evenodd" clip-rule="evenodd" d="M0.653961 3.27606C0 4.55953 0 6.23969 0 9.6V13.4C0 16.7603 0 18.4405 0.653961 19.7239C1.2292 20.8529 2.14708 21.7708 3.27606 22.346C4.55953 23 6.23969 23 9.6 23H13.4C16.7603 23 18.4405 23 19.7239 22.346C20.8529 21.7708 21.7708 20.8529 22.346 19.7239C23 18.4405 23 16.7603 23 13.4V9.6C23 6.23969 23 4.55953 22.346 3.27606C21.7708 2.14708 20.8529 1.2292 19.7239 0.653961C18.4405 0 16.7603 0 13.4 0H9.6C6.23969 0 4.55953 0 3.27606 0.653961C2.14708 1.2292 1.2292 2.14708 0.653961 3.27606ZM4.65371 10.5526L17.055 6.07233C17.6209 5.83249 18.1679 6.20011 17.9517 7.01201L15.8401 16.3355C15.6925 16.9986 15.2665 17.1559 14.6734 16.8499L11.4566 14.6239L9.9101 16.0327C9.90433 16.038 9.8986 16.0432 9.8929 16.0483C9.72038 16.2046 9.57737 16.3342 9.26591 16.3342L9.48554 13.2589L15.454 8.21251C15.7156 7.99495 15.3973 7.88814 15.049 8.08669L7.68235 12.4411L4.49844 11.5106C3.81227 11.3133 3.80737 10.871 4.65371 10.5526Z" fill="white"/>
</svg>
