<svg width="23" height="23" viewBox="0 0 23 23" fill="none" xmlns="http://www.w3.org/2000/svg">
<path fill-rule="evenodd" clip-rule="evenodd" d="M22.4954 6.81257C22.6475 6.34457 22.4954 6 21.7666 6H19.3604C18.7481 6 18.4658 6.29743 18.3127 6.62571C18.3127 6.62571 17.089 9.36514 15.3556 11.1446C14.7946 11.6606 14.5398 11.8243 14.2336 11.8243C14.0806 11.8243 13.8505 11.6606 13.8505 11.1917V6.81257C13.8505 6.25029 13.6818 6 13.1722 6H9.38824C9.006 6 8.77592 6.26057 8.77592 6.50829C8.77592 7.04057 9.64307 7.164 9.73198 8.66229V11.9177C9.73198 12.6317 9.59174 12.7611 9.28558 12.7611C8.46976 12.7611 6.48522 10.0089 5.30733 6.85971C5.07908 6.24686 4.84809 6 4.23302 6H1.82498C1.1375 6 1 6.29743 1 6.62571C1 7.21029 1.81582 10.1143 4.7995 13.9551C6.78863 16.578 9.58899 18 12.14 18C13.6699 18 13.8587 17.6846 13.8587 17.1403V15.1577C13.8587 14.526 14.0036 14.4 14.4885 14.4C14.846 14.4 15.4574 14.5646 16.8855 15.8289C18.5171 17.328 18.7857 18 19.7042 18H22.1104C22.7979 18 23.1425 17.6846 22.9445 17.0606C22.7264 16.44 21.9472 15.5391 20.9142 14.4703C20.3532 13.8617 19.5117 13.206 19.256 12.8777C18.8994 12.4569 19.0011 12.2691 19.256 11.8946C19.256 11.8946 22.1901 8.10086 22.4954 6.81257Z" fill="white"/>
</svg>
