<svg width="24" height="17" viewBox="0 0 24 17" fill="none" xmlns="http://www.w3.org/2000/svg">
<path d="M23.486 3.0104C23.3502 2.52593 23.0857 2.08732 22.7205 1.74119C22.345 1.38441 21.8848 1.1292 21.3833 0.999649C19.5065 0.504956 11.9872 0.504956 11.9872 0.504956C8.85245 0.469291 5.7185 0.626155 2.603 0.974664C2.1015 1.11379 1.64216 1.3747 1.26583 1.73419C0.896061 2.08997 0.628227 2.5287 0.488314 3.0094C0.152216 4.82002 -0.0110839 6.65848 0.0006168 8.49999C-0.0113758 10.3399 0.151523 12.1777 0.488314 13.9906C0.625229 14.4693 0.892064 14.906 1.26283 15.2588C1.6336 15.6116 2.09532 15.8664 2.603 16.0013C4.50482 16.495 11.9872 16.495 11.9872 16.495C15.1259 16.5307 18.2638 16.3739 21.3833 16.0253C21.8848 15.8958 22.345 15.6406 22.7205 15.2838C23.0856 14.9377 23.3498 14.499 23.485 14.0146C23.8299 12.2046 23.9976 10.3654 23.9857 8.52298C24.0117 6.67273 23.8442 4.82484 23.486 3.0094V3.0104ZM9.59666 11.9219V5.07912L15.8528 8.50099L9.59666 11.9219Z" fill="white"/>
</svg>
